<svg width="49" height="40" viewBox="0 0 49 40" fill="none" xmlns="http://www.w3.org/2000/svg">
<path d="M40.157 5.45348C40.1438 5.42823 40.122 5.40878 40.0958 5.39879C37.179 4.03302 34.1011 3.05876 30.9389 2.50035C30.9105 2.49504 30.8812 2.49897 30.8551 2.51158C30.829 2.5242 30.8074 2.54487 30.7934 2.57066C30.374 3.34745 29.9933 4.14534 29.6526 4.96129C26.2422 4.43306 22.7731 4.43306 19.3626 4.96129C19.0207 4.14333 18.6347 3.34524 18.2066 2.57066C18.1918 2.54564 18.1701 2.52561 18.1442 2.51311C18.1183 2.5006 18.0894 2.49616 18.0611 2.50035C14.8934 3.05624 11.8101 4.03057 8.8889 5.39879C8.86328 5.40987 8.84181 5.42903 8.82765 5.45348C2.99358 14.3519 1.39343 23.0238 2.17437 31.5941C2.17658 31.6157 2.18317 31.6365 2.19371 31.6554C2.20426 31.6742 2.21853 31.6906 2.23562 31.7035C5.63395 34.2684 9.43442 36.2259 13.475 37.4925C13.504 37.5017 13.5352 37.5014 13.564 37.4916C13.5928 37.4817 13.6179 37.463 13.6358 37.4379C14.5027 36.2335 15.2709 34.9584 15.9326 33.6253C15.9415 33.607 15.9465 33.587 15.9473 33.5666C15.9482 33.5462 15.945 33.5258 15.9378 33.5067C15.9306 33.4877 15.9196 33.4703 15.9056 33.4558C15.8915 33.4412 15.8747 33.4298 15.8561 33.4222C14.6422 32.9476 13.4671 32.3755 12.3419 31.7113C12.322 31.6989 12.3053 31.6817 12.2933 31.6614C12.2812 31.641 12.2742 31.618 12.2727 31.5942C12.2712 31.5705 12.2753 31.5467 12.2846 31.525C12.294 31.5032 12.3084 31.484 12.3266 31.4691C12.5639 31.2894 12.8012 31.1019 13.0233 30.9144C13.0429 30.8969 13.0669 30.8854 13.0927 30.8812C13.1184 30.8771 13.1448 30.8804 13.1687 30.891C20.5341 34.3207 28.5119 34.3207 35.793 30.891C35.8162 30.8794 35.8422 30.8747 35.8679 30.8775C35.8936 30.8802 35.9181 30.8903 35.9384 30.9066C36.1605 31.0941 36.3978 31.2894 36.6351 31.4691C36.6533 31.484 36.6677 31.5032 36.6771 31.525C36.6864 31.5467 36.6905 31.5705 36.689 31.5942C36.6875 31.618 36.6805 31.641 36.6684 31.6614C36.6564 31.6817 36.6397 31.6989 36.6198 31.7113C35.4975 32.3789 34.3219 32.9487 33.1056 33.4144C33.087 33.422 33.0702 33.4334 33.0561 33.448C33.0421 33.4625 33.0311 33.4799 33.0239 33.4989C33.0167 33.518 33.0135 33.5384 33.0144 33.5588C33.0152 33.5792 33.0202 33.5992 33.0291 33.6175C33.7023 34.944 34.47 36.2182 35.3259 37.43C35.3438 37.4552 35.3689 37.4739 35.3977 37.4837C35.4265 37.4935 35.4577 37.4939 35.4867 37.4847C39.5389 36.2238 43.3504 34.2659 46.7567 31.6957C46.7742 31.6831 46.7887 31.6668 46.7993 31.6479C46.8098 31.629 46.8162 31.608 46.818 31.5863C47.752 21.6878 45.2408 13.0863 40.157 5.45348ZM17.0351 26.3754C14.8148 26.3754 12.9926 24.2972 12.9926 21.7504C12.9926 19.2035 14.7842 17.1175 17.0351 17.1175C19.3091 17.1175 21.1159 19.2113 21.0776 21.7425C21.0776 24.2972 19.2861 26.3754 17.0351 26.3754ZM31.9955 26.3754C29.7751 26.3754 27.953 24.2972 27.953 21.7504C27.953 19.2035 29.7369 17.1175 31.9955 17.1175C34.2694 17.1175 36.0762 19.2113 36.038 21.7425C36.038 24.2972 34.2617 26.3754 31.9955 26.3754Z" fill="#B9B9B9"/>
</svg>
