<svg width="33" height="41" viewBox="0 0 33 41" fill="none" xmlns="http://www.w3.org/2000/svg">
<g clip-path="url(#clip0_2003_66)">
<path d="M16.5074 11.2914C11.8225 11.2914 8.04375 15.3994 8.04375 20.4923C8.04375 25.5853 11.8225 29.6933 16.5074 29.6933C21.1922 29.6933 24.971 25.5853 24.971 20.4923C24.971 15.3994 21.1922 11.2914 16.5074 11.2914ZM16.5074 26.4742C13.4799 26.4742 11.0049 23.7916 11.0049 20.4923C11.0049 17.1931 13.4725 14.5105 16.5074 14.5105C19.5422 14.5105 22.0098 17.1931 22.0098 20.4923C22.0098 23.7916 19.5348 26.4742 16.5074 26.4742ZM27.2913 10.915C27.2913 12.1082 26.4074 13.0611 25.3172 13.0611C24.2196 13.0611 23.3431 12.1001 23.3431 10.915C23.3431 9.72983 24.227 8.7689 25.3172 8.7689C26.4074 8.7689 27.2913 9.72983 27.2913 10.915ZM32.8969 13.0931C32.7717 10.2183 32.1676 7.67183 30.2304 5.57378C28.3004 3.47573 25.958 2.81909 23.3136 2.67495C20.5882 2.50679 12.4192 2.50679 9.69375 2.67495C7.0567 2.81108 4.71429 3.46772 2.77701 5.56577C0.839733 7.66382 0.243081 10.2103 0.110492 13.0851C-0.0441956 16.048 -0.0441956 24.9287 0.110492 27.8916C0.235715 30.7664 0.839733 33.3128 2.77701 35.4109C4.71429 37.5089 7.04933 38.1656 9.69375 38.3097C12.4192 38.4779 20.5882 38.4779 23.3136 38.3097C25.958 38.1736 28.3004 37.5169 30.2304 35.4109C32.1603 33.3128 32.7643 30.7664 32.8969 27.8916C33.0516 24.9287 33.0516 16.056 32.8969 13.0931ZM29.3759 31.0707C28.8013 32.6402 27.6891 33.8494 26.2379 34.482C24.065 35.4189 18.9087 35.2027 16.5074 35.2027C14.106 35.2027 8.94241 35.4109 6.77679 34.482C5.33304 33.8574 4.22076 32.6482 3.63884 31.0707C2.77701 28.7083 2.97589 23.1029 2.97589 20.4923C2.97589 17.8818 2.78438 12.2683 3.63884 9.91401C4.21339 8.34448 5.32567 7.1353 6.77679 6.50269C8.94978 5.56577 14.106 5.78198 16.5074 5.78198C18.9087 5.78198 24.0723 5.57378 26.2379 6.50269C27.6817 7.12729 28.794 8.33647 29.3759 9.91401C30.2377 12.2763 30.0388 17.8818 30.0388 20.4923C30.0388 23.1029 30.2377 28.7164 29.3759 31.0707Z" fill="#B9B9B9"/>
</g>
<defs>
<clipPath id="clip0_2003_66">
<rect width="33" height="41" fill="white"/>
</clipPath>
</defs>
</svg>
